{
  "accessors": [
    {
      "bufferView": 2,
      "componentType": 5126,
      "count": 6880,
      "max": [
        1.5709309577941895,
        0.8956869840621948,
        4.818205833435059
      ],
      "min": [
        -1.5709309577941895,
        -1.1556110382080078,
        -0.8950120210647583
      ],
      "type": "VEC3"
    },
    {
      "bufferView": 2,
      "byteOffset": 82560,
      "componentType": 5126,
      "count": 6880,
      "max": [
        0.999782383441925,
        0.9999916553497314,
        0.9999990463256836
      ],
      "min": [
        -0.999782383441925,
        -0.9999992847442627,
        -0.9999998807907104
      ],
      "type": "VEC3"
    },
    {
      "bufferView": 1,
      "componentType": 5126,
      "count": 6880,
      "max": [
        0.995855987071991,
        0.9844459891319275
      ],
      "min": [
        0.014426999725401402,
        0.01774900034070015
      ],
      "type": "VEC2"
    },
    {
      "bufferView": 0,
      "componentType": 5125,
      "count": 37428,
      "type": "SCALAR"
    }
  ],
  "asset": {
    "extras": {
      "author": "IgorSan (https://sketchfab.com/IgorSan)",
      "license": "CC-BY-4.0 (http://creativecommons.org/licenses/by/4.0/)",
      "source": "https://sketchfab.com/3d-models/toy-art-base-doll-0e758edb2e374a879cfd4f7c6cc6c96c",
      "title": "Toy Art Base Doll"
    },
    "generator": "Sketchfab-15.55.0",
    "version": "2.0"
  },
  "bufferViews": [
    {
      "buffer": 0,
      "byteLength": 149712,
      "name": "floatBufferViews",
      "target": 34963
    },
    {
      "buffer": 0,
      "byteLength": 55040,
      "byteOffset": 149712,
      "byteStride": 8,
      "name": "floatBufferViews",
      "target": 34962
    },
    {
      "buffer": 0,
      "byteLength": 165120,
      "byteOffset": 204752,
      "byteStride": 12,
      "name": "floatBufferViews",
      "target": 34962
    }
  ],
  "buffers": [
    {
      "byteLength": 369872,
      "uri": "scene.bin"
    }
  ],
  "materials": [
    {
      "doubleSided": true,
      "name": "material_0",
      "pbrMetallicRoughness": {
        "baseColorFactor": [
          0.053573780633981286,
          0.0390713556471805,
          0.037084072315222774,
          1.0
        ],
        "metallicFactor": 0.0,
        "roughnessFactor": 0.6
      }
    }
  ],
  "meshes": [
    {
      "name": "Object_0",
      "primitives": [
        {
          "attributes": {
            "NORMAL": 1,
            "POSITION": 0,
            "TEXCOORD_0": 2
          },
          "indices": 3,
          "material": 0,
          "mode": 4
        }
      ]
    }
  ],
  "nodes": [
    {
      "children": [
        1
      ],
      "matrix": [
        1.0,
        0.0,
        0.0,
        0.0,
        0.0,
        2.220446049250313e-16,
        -1.0,
        0.0,
        0.0,
        1.0,
        2.220446049250313e-16,
        0.0,
        0.0,
        0.0,
        0.0,
        1.0
      ],
      "name": "Sketchfab_model"
    },
    {
      "children": [
        2
      ],
      "name": "Toy Art Base Doll.obj.cleaner.materialmerger.gles"
    },
    {
      "mesh": 0,
      "name": "Object_2"
    }
  ],
  "scene": 0,
  "scenes": [
    {
      "name": "Sketchfab_Scene",
      "nodes": [
        0
      ]
    }
  ]
}
